<svg width="64" height="64" viewBox="0 0 64 64" fill="none" xmlns="http://www.w3.org/2000/svg">
<path d="M26.9256 0.866836C22.4945 2.5616 23.7262 4.6181 21.8388 8.18477C18.8608 13.8124 19.2433 21.1891 21.8388 26.9759C23.6739 31.0681 28.8104 36.3713 28.8104 36.3713V55.1625L17.3527 59.7238C16.642 60.1368 16.3268 60.5985 16.3268 61.4972V62.8581C16.3268 63.5865 16.7476 64 17.5628 64L26.9256 59.8601H37.0994L46.1082 64C46.9498 64 47.3448 63.5865 47.3448 62.8581V61.4972C47.3448 60.5985 47.029 60.1368 46.3189 59.7238L34.6764 55.1639L34.6931 36.3713C34.6931 36.3713 40.3511 31.0681 42.1862 26.9759C44.7822 21.1891 45.175 13.8074 42.1862 8.18477C40.2972 4.63104 41.5305 2.61583 37.0994 0.92107C33.9662 -0.277605 30.0588 -0.331838 26.9089 0.908633L26.9256 0.866836Z" fill="white"/>
<path d="M1.35621 4.3701C23.3066 21.2433 39.0724 33.4602 60.6502 50.2225C62.4867 51.6491 64.4652 49.4711 62.6212 48.0533C40.9506 31.3931 25.1848 19.1762 3.2764 2.2568C1.48289 0.871691 -0.440699 2.98874 1.35621 4.3701Z" fill="white"/>
<path d="M60.6222 2.13331C38.8171 19.1663 23.0512 31.3833 1.42901 48.0966C-0.411148 49.5192 1.56786 51.6967 3.40003 50.2659C24.9294 33.4504 40.6953 21.2334 62.5424 4.24661C64.3309 2.85601 62.4073 0.738965 60.6222 2.13331Z" fill="white"/>
</svg>
